<?xml version="1.0"?>
<svg xmlns="http://www.w3.org/2000/svg" height="512px" viewBox="0 0 64 64" width="512px"><g><g id="Gift_Voucher" data-name="Gift Voucher"><path d="m61 28h-16v-25a1 1 0 0 0 -1-1h-24a1 1 0 0 0 -1 1v25h-16a1 1 0 0 0 -1 1v32a1 1 0 0 0 1 1h58a1 1 0 0 0 1-1v-32a1 1 0 0 0 -1-1zm-40-24h22v24h-2v-17a1 1 0 0 0 -1-1 3.009 3.009 0 0 1 -3-3 1 1 0 0 0 -1-1h-8a1 1 0 0 0 -1 1 3.009 3.009 0 0 1 -3 3 1 1 0 0 0 -1 1v17h-2zm18 7.9v16.1h-14v-16.1a5.01 5.01 0 0 0 3.9-3.9h6.2a5.01 5.01 0 0 0 3.9 3.9zm-18 26.1h3v3a3.009 3.009 0 0 1 -3 3h-3v-3a3.009 3.009 0 0 1 3-3zm11.05 8h-7.06a5.212 5.212 0 0 0 -.99-1 5.212 5.212 0 0 0 .99-1h7.06c-.02.33-.05.66-.05 1s.03.67.05 1zm-16.05-16h2v7.01a5.212 5.212 0 0 0 -1 .99 5.212 5.212 0 0 0 -1-.99zm0 11v3h-3a3.009 3.009 0 0 1 -3-3v-3h3a3.009 3.009 0 0 1 3 3zm-12-11h10v6.11a4.714 4.714 0 0 0 -1-.11h-4a1 1 0 0 0 -1 1v4a4.714 4.714 0 0 0 .11 1h-4.11zm0 14h5.01a5.212 5.212 0 0 0 .99 1 5.212 5.212 0 0 0 -.99 1h-5.01zm10 16h-10v-12h4.11a4.714 4.714 0 0 0 -.11 1v4a1 1 0 0 0 1 1h4a4.714 4.714 0 0 0 1-.11zm-1-8h-3v-3a3.009 3.009 0 0 1 3-3h3v3a3.009 3.009 0 0 1 -3 3zm5 8h-2v-7.01a5.212 5.212 0 0 0 1-.99 5.212 5.212 0 0 0 1 .99zm0-11v-3h3a3.009 3.009 0 0 1 3 3v3h-3a3.009 3.009 0 0 1 -3-3zm42 11h-40v-6.11a4.714 4.714 0 0 0 1 .11h4a1 1 0 0 0 1-1v-4a4.714 4.714 0 0 0 -.11-1h6.47a12.988 12.988 0 0 0 25.28 0h2.36zm-26-15a11 11 0 1 1 11 11 11.007 11.007 0 0 1 -11-11zm26 1h-2.05c.02-.33.05-.66.05-1s-.03-.67-.05-1h2.05zm0-4h-2.36a12.988 12.988 0 0 0 -25.28 0h-6.47a4.714 4.714 0 0 0 .11-1v-4a1 1 0 0 0 -1-1h-4a4.714 4.714 0 0 0 -1 .11v-6.11h40z" data-original="#000000" class="active-path" data-old_color="#000000" fill="#333333"/><path d="m49 48a4 4 0 0 1 -3 3.86v2.14h-2v-2.14a4 4 0 0 1 -3-3.86h2a2 2 0 1 0 2-2 3.993 3.993 0 0 1 -1-7.86v-2.14h2v2.14a4 4 0 0 1 3 3.86h-2a2 2 0 1 0 -2 2 4 4 0 0 1 4 4z" data-original="#000000" class="active-path" data-old_color="#000000" fill="#333333"/><path d="m37 23a5 5 0 1 0 -5 5 5.006 5.006 0 0 0 5-5zm-5 3a3 3 0 1 1 3-3 3 3 0 0 1 -3 3z" data-original="#000000" class="active-path" data-old_color="#000000" fill="#333333"/><path d="m8 20h2v2h-2z" data-original="#000000" class="active-path" data-old_color="#000000" fill="#333333"/><path d="m4 20h2v2h-2z" data-original="#000000" class="active-path" data-old_color="#000000" fill="#333333"/><path d="m6 18h2v2h-2z" data-original="#000000" class="active-path" data-old_color="#000000" fill="#333333"/><path d="m6 22h2v2h-2z" data-original="#000000" class="active-path" data-old_color="#000000" fill="#333333"/><path d="m14 12h2v2h-2z" data-original="#000000" class="active-path" data-old_color="#000000" fill="#333333"/><path d="m10 12h2v2h-2z" data-original="#000000" class="active-path" data-old_color="#000000" fill="#333333"/><path d="m12 10h2v2h-2z" data-original="#000000" class="active-path" data-old_color="#000000" fill="#333333"/><path d="m12 14h2v2h-2z" data-original="#000000" class="active-path" data-old_color="#000000" fill="#333333"/><path d="m6 4h2v2h-2z" data-original="#000000" class="active-path" data-old_color="#000000" fill="#333333"/><path d="m2 4h2v2h-2z" data-original="#000000" class="active-path" data-old_color="#000000" fill="#333333"/><path d="m4 2h2v2h-2z" data-original="#000000" class="active-path" data-old_color="#000000" fill="#333333"/><path d="m4 6h2v2h-2z" data-original="#000000" class="active-path" data-old_color="#000000" fill="#333333"/><path d="m54 20h2v2h-2z" data-original="#000000" class="active-path" data-old_color="#000000" fill="#333333"/><path d="m58 20h2v2h-2z" data-original="#000000" class="active-path" data-old_color="#000000" fill="#333333"/><path d="m56 18h2v2h-2z" data-original="#000000" class="active-path" data-old_color="#000000" fill="#333333"/><path d="m56 22h2v2h-2z" data-original="#000000" class="active-path" data-old_color="#000000" fill="#333333"/><path d="m48 12h2v2h-2z" data-original="#000000" class="active-path" data-old_color="#000000" fill="#333333"/><path d="m52 12h2v2h-2z" data-original="#000000" class="active-path" data-old_color="#000000" fill="#333333"/><path d="m50 10h2v2h-2z" data-original="#000000" class="active-path" data-old_color="#000000" fill="#333333"/><path d="m50 14h2v2h-2z" data-original="#000000" class="active-path" data-old_color="#000000" fill="#333333"/><path d="m56 4h2v2h-2z" data-original="#000000" class="active-path" data-old_color="#000000" fill="#333333"/><path d="m60 4h2v2h-2z" data-original="#000000" class="active-path" data-old_color="#000000" fill="#333333"/><path d="m58 2h2v2h-2z" data-original="#000000" class="active-path" data-old_color="#000000" fill="#333333"/><path d="m58 6h2v2h-2z" data-original="#000000" class="active-path" data-old_color="#000000" fill="#333333"/></g></g> </svg>
